<?xml version="1.0" encoding="UTF-8"?><svg xmlns="http://www.w3.org/2000/svg" viewBox="0 0 300 200"><defs><style>.cls-1{fill:none;}.cls-2{fill:#e9e9e9;}.cls-3{fill:#2b2c30;}</style></defs><g id="Layer_2"><path class="cls-2" d="M191.4,.31H109.35c-10.34,0-19.89,5.52-25.06,14.47L43.26,85.84c-5.17,8.95-5.17,19.99,0,28.94l41.03,71.06c5.17,8.95,14.72,14.47,25.06,14.47h82.05c10.34,0,19.89-5.52,25.06-14.47l41.03-71.06c5.17-8.95,5.17-19.99,0-28.94L216.46,14.78c-5.17-8.95-14.72-14.47-25.06-14.47Z"/></g><g id="Layer_5"><g><path class="cls-3" d="M29.87,74.85h27.35c14.41,0,24.08,7.42,24.08,24.7s-9.67,25.17-23.41,25.17H29.87v-49.87Zm26.71,40.33c7.34,0,12.58-3.77,12.58-15.63s-5.24-15.16-12.58-15.16h-14.85v30.79h14.85Z"/><path class="cls-3" d="M90.91,75.9h31.21c10.8,0,19.66,3.94,19.66,16.2s-9.12,17.09-19.66,17.09h-19.35v16.58h-11.86v-49.87Zm30.57,23.89c5.9,0,8.69-2.72,8.69-7.69s-3.06-6.8-8.69-6.8h-18.71v14.48h18.71Z"/><path class="cls-3" d="M220.01,75.9h31.21c10.8,0,19.66,3.94,19.66,16.2s-9.12,17.09-19.66,17.09h-19.35v16.58h-11.86v-49.87Zm30.57,23.89c5.9,0,8.69-2.72,8.69-7.69s-3.06-6.8-8.69-6.8h-18.71v14.48h18.71Z"/><path class="cls-3" d="M154.35,75.9h12.1l28.38,14.42v-14.42h11.31v49.87h-11.1s-.21-23.55-.21-23.55c0,0-28.85-14.4-29.18-14.85v38.4h-11.31v-49.87Z"/></g></g><g id="bounding"><rect class="cls-1" y=".31" width="300" height="200"/></g></svg>